<?xml version="1.0" encoding="iso-8859-1"?>
<!-- Generator: Adobe Illustrator 19.0.0, SVG Export Plug-In . SVG Version: 6.00 Build 0)  -->
<svg version="1.1" id="Capa_1" xmlns="http://www.w3.org/2000/svg" xmlns:xlink="http://www.w3.org/1999/xlink" x="0px" y="0px"
	 viewBox="0 0 512.001 512.001" style="enable-background:new 0 0 512.001 512.001;" xml:space="preserve">
<g>
	<g>
		<path d="M507.586,98.766L413.236,4.415c-5.884-5.885-15.427-5.885-21.312,0L4.415,391.923C1.587,394.75,0,398.582,0,402.579
			c0,3.998,1.587,7.83,4.415,10.656l94.351,94.351c2.943,2.943,6.8,4.415,10.656,4.415s7.714-1.471,10.656-4.415l387.51-387.508
			c2.826-2.826,4.415-6.659,4.415-10.656C512,105.425,510.413,101.592,507.586,98.766z M109.421,475.618L36.383,402.58
			l26.927-26.927l21.863,21.864c2.943,2.943,6.8,4.415,10.656,4.415c3.856,0,7.714-1.472,10.656-4.414
			c5.885-5.885,5.885-15.427,0-21.312l-21.863-21.864l27.193-27.193l21.864,21.864c2.943,2.943,6.8,4.414,10.656,4.414
			c3.856,0,7.714-1.471,10.656-4.415c5.885-5.885,5.885-15.427,0-21.312l-21.864-21.863l27.193-27.193l21.864,21.864
			c2.943,2.943,6.8,4.415,10.656,4.415c3.856,0,7.714-1.471,10.656-4.415c5.885-5.885,5.885-15.427,0-21.312l-21.864-21.864
			l27.193-27.193l21.864,21.864c2.943,2.943,6.8,4.415,10.656,4.415s7.714-1.471,10.656-4.415c5.885-5.885,5.885-15.427,0-21.312
			l-21.864-21.864l27.193-27.193l21.863,21.864c2.943,2.943,6.8,4.415,10.656,4.415c3.856,0,7.714-1.472,10.656-4.414
			c5.885-5.885,5.885-15.427,0-21.312l-21.863-21.864l27.193-27.193l21.864,21.864c2.943,2.943,6.8,4.414,10.656,4.414
			s7.714-1.471,10.656-4.415c5.885-5.885,5.885-15.427,0-21.312l-21.863-21.863l27.193-27.193l21.863,21.863
			c2.943,2.943,6.8,4.415,10.656,4.415s7.714-1.471,10.656-4.415c5.885-5.885,5.885-15.427,0-21.312l-21.863-21.863l26.927-26.927
			l73.039,73.037L109.421,475.618z"/>
	</g>
</g>
<g>
</g>
<g>
</g>
<g>
</g>
<g>
</g>
<g>
</g>
<g>
</g>
<g>
</g>
<g>
</g>
<g>
</g>
<g>
</g>
<g>
</g>
<g>
</g>
<g>
</g>
<g>
</g>
<g>
</g>
</svg>
